<svg xmlns="http://www.w3.org/2000/svg" width="11" height="14" viewBox="0 0 11 14">
    <path fill="#167BCD" fill-rule="evenodd" d="M6.281 13.324l4.396-3.251c.279-.206.387-.507.285-.788-.102-.282-.4-.502-.78-.577-.38-.076-.787.005-1.066.21L6.6 10.789v-9.42C6.6.92 6.108.556 5.5.556c-.606 0-1.098.363-1.098.812v9.42l-2.516-1.87a1.318 1.318 0 0 0-.78-.24c-.294 0-.575.087-.78.24C.116 9.072 0 9.28 0 9.497c0 .217.117.424.325.577l4.396 3.25a1.2 1.2 0 0 0 .362.172c.268.08.568.08.836 0a1.2 1.2 0 0 0 .362-.171z"/>
</svg>
